<mxfile host="Electron" modified="2023-05-06T00:06:26.471Z" agent="Mozilla/5.0 (Macintosh; Intel Mac OS X 10_15_7) AppleWebKit/537.36 (KHTML, like Gecko) draw.io/21.1.2 Chrome/106.0.5249.199 Electron/21.4.3 Safari/537.36" etag="8L7QPkvuLwYrZpV1anPO" version="21.1.2" type="device">
  <diagram name="第 1 页" id="XpsZiIT_elhzZSnDjyX6">
    <mxGraphModel dx="982" dy="743" grid="1" gridSize="10" guides="1" tooltips="1" connect="1" arrows="1" fold="1" page="1" pageScale="1" pageWidth="827" pageHeight="1169" math="0" shadow="0">
      <root>
        <mxCell id="0" />
        <mxCell id="1" parent="0" />
        <mxCell id="ELEdCjapv1C9CMs8I46E-16" value="" style="group;fillColor=#ffff88;strokeColor=#36393d;" parent="1" vertex="1" connectable="0">
          <mxGeometry x="230" y="600" width="660" height="60" as="geometry" />
        </mxCell>
        <mxCell id="ELEdCjapv1C9CMs8I46E-8" value="传输层" style="rounded=0;whiteSpace=wrap;html=1;fillColor=#d5e8d4;strokeColor=#82b366;" parent="ELEdCjapv1C9CMs8I46E-16" vertex="1">
          <mxGeometry width="220" height="60" as="geometry" />
        </mxCell>
        <mxCell id="ELEdCjapv1C9CMs8I46E-12" value="传输层" style="rounded=0;whiteSpace=wrap;html=1;fillColor=#d5e8d4;strokeColor=#82b366;" parent="ELEdCjapv1C9CMs8I46E-16" vertex="1">
          <mxGeometry x="480" width="180" height="60" as="geometry" />
        </mxCell>
        <mxCell id="ELEdCjapv1C9CMs8I46E-17" value="" style="group;fillColor=#ffff88;strokeColor=#36393d;" parent="1" vertex="1" connectable="0">
          <mxGeometry x="230" y="680" width="660" height="60" as="geometry" />
        </mxCell>
        <mxCell id="ELEdCjapv1C9CMs8I46E-9" value="网络层" style="rounded=0;whiteSpace=wrap;html=1;fillColor=#fff2cc;strokeColor=#d6b656;" parent="ELEdCjapv1C9CMs8I46E-17" vertex="1">
          <mxGeometry width="220" height="60" as="geometry" />
        </mxCell>
        <mxCell id="ELEdCjapv1C9CMs8I46E-13" value="网络互联层" style="rounded=0;whiteSpace=wrap;html=1;fillColor=#fff2cc;strokeColor=#d6b656;" parent="ELEdCjapv1C9CMs8I46E-17" vertex="1">
          <mxGeometry x="480" width="180" height="60" as="geometry" />
        </mxCell>
        <mxCell id="ELEdCjapv1C9CMs8I46E-20" value="" style="endArrow=classic;html=1;rounded=0;entryX=0.5;entryY=1;entryDx=0;entryDy=0;exitX=0.5;exitY=0;exitDx=0;exitDy=0;" parent="1" source="ELEdCjapv1C9CMs8I46E-10" target="ELEdCjapv1C9CMs8I46E-9" edge="1">
          <mxGeometry width="50" height="50" relative="1" as="geometry">
            <mxPoint x="300" y="810" as="sourcePoint" />
            <mxPoint x="350" y="760" as="targetPoint" />
          </mxGeometry>
        </mxCell>
        <mxCell id="ELEdCjapv1C9CMs8I46E-21" value="" style="endArrow=classic;html=1;rounded=0;exitX=0.5;exitY=0;exitDx=0;exitDy=0;entryX=0.5;entryY=1;entryDx=0;entryDy=0;" parent="1" source="ELEdCjapv1C9CMs8I46E-9" target="ELEdCjapv1C9CMs8I46E-8" edge="1">
          <mxGeometry width="50" height="50" relative="1" as="geometry">
            <mxPoint x="300" y="720" as="sourcePoint" />
            <mxPoint x="350" y="670" as="targetPoint" />
          </mxGeometry>
        </mxCell>
        <mxCell id="ELEdCjapv1C9CMs8I46E-22" value="" style="endArrow=classic;html=1;rounded=0;exitX=0.5;exitY=0;exitDx=0;exitDy=0;entryX=0.5;entryY=1;entryDx=0;entryDy=0;" parent="1" source="ELEdCjapv1C9CMs8I46E-8" target="ELEdCjapv1C9CMs8I46E-7" edge="1">
          <mxGeometry width="50" height="50" relative="1" as="geometry">
            <mxPoint x="340" y="600" as="sourcePoint" />
            <mxPoint x="340" y="590" as="targetPoint" />
          </mxGeometry>
        </mxCell>
        <mxCell id="ELEdCjapv1C9CMs8I46E-25" value="" style="endArrow=classic;html=1;rounded=0;entryX=0.5;entryY=1;entryDx=0;entryDy=0;exitX=0.5;exitY=0;exitDx=0;exitDy=0;" parent="1" source="ELEdCjapv1C9CMs8I46E-12" target="ELEdCjapv1C9CMs8I46E-5" edge="1">
          <mxGeometry width="50" height="50" relative="1" as="geometry">
            <mxPoint x="910" y="640" as="sourcePoint" />
            <mxPoint x="960" y="590" as="targetPoint" />
          </mxGeometry>
        </mxCell>
        <mxCell id="ELEdCjapv1C9CMs8I46E-26" value="" style="endArrow=classic;html=1;rounded=0;entryX=0.5;entryY=1;entryDx=0;entryDy=0;exitX=0.5;exitY=0;exitDx=0;exitDy=0;" parent="1" source="ELEdCjapv1C9CMs8I46E-13" target="ELEdCjapv1C9CMs8I46E-12" edge="1">
          <mxGeometry width="50" height="50" relative="1" as="geometry">
            <mxPoint x="910" y="760" as="sourcePoint" />
            <mxPoint x="960" y="710" as="targetPoint" />
          </mxGeometry>
        </mxCell>
        <mxCell id="ELEdCjapv1C9CMs8I46E-27" value="" style="endArrow=classic;html=1;rounded=0;entryX=0.5;entryY=1;entryDx=0;entryDy=0;exitX=0.5;exitY=0;exitDx=0;exitDy=0;" parent="1" source="ELEdCjapv1C9CMs8I46E-14" target="ELEdCjapv1C9CMs8I46E-13" edge="1">
          <mxGeometry width="50" height="50" relative="1" as="geometry">
            <mxPoint x="1010" y="850" as="sourcePoint" />
            <mxPoint x="1060" y="800" as="targetPoint" />
          </mxGeometry>
        </mxCell>
        <mxCell id="ELEdCjapv1C9CMs8I46E-28" value="" style="group;fillColor=#ffff88;strokeColor=#36393d;" parent="1" vertex="1" connectable="0">
          <mxGeometry x="230" y="387.99709677419355" width="660" height="196.61290322580646" as="geometry" />
        </mxCell>
        <mxCell id="ELEdCjapv1C9CMs8I46E-2" value="表示层" style="rounded=0;whiteSpace=wrap;html=1;fillColor=#dae8fc;strokeColor=#6c8ebf;" parent="ELEdCjapv1C9CMs8I46E-28" vertex="1">
          <mxGeometry y="72.66129032258067" width="220" height="51.29032258064515" as="geometry" />
        </mxCell>
        <mxCell id="ELEdCjapv1C9CMs8I46E-5" value="应用层" style="rounded=0;whiteSpace=wrap;html=1;fillColor=#dae8fc;strokeColor=#6c8ebf;" parent="ELEdCjapv1C9CMs8I46E-28" vertex="1">
          <mxGeometry x="480" width="180" height="196.61290322580646" as="geometry" />
        </mxCell>
        <mxCell id="ELEdCjapv1C9CMs8I46E-6" value="应用层" style="rounded=0;whiteSpace=wrap;html=1;fillColor=#dae8fc;strokeColor=#6c8ebf;" parent="ELEdCjapv1C9CMs8I46E-28" vertex="1">
          <mxGeometry y="0.004193548387075197" width="220" height="51.29032258064515" as="geometry" />
        </mxCell>
        <mxCell id="ELEdCjapv1C9CMs8I46E-7" value="会话层" style="rounded=0;whiteSpace=wrap;html=1;fillColor=#dae8fc;strokeColor=#6c8ebf;" parent="ELEdCjapv1C9CMs8I46E-28" vertex="1">
          <mxGeometry y="145.32258064516134" width="220" height="51.29032258064515" as="geometry" />
        </mxCell>
        <mxCell id="ELEdCjapv1C9CMs8I46E-24" value="" style="endArrow=classic;html=1;rounded=0;entryX=0.5;entryY=1;entryDx=0;entryDy=0;exitX=0.5;exitY=0;exitDx=0;exitDy=0;" parent="ELEdCjapv1C9CMs8I46E-28" source="ELEdCjapv1C9CMs8I46E-2" target="ELEdCjapv1C9CMs8I46E-6" edge="1">
          <mxGeometry width="50" height="50" relative="1" as="geometry">
            <mxPoint x="300" y="435.8306451612903" as="sourcePoint" />
            <mxPoint x="350" y="393.08870967741933" as="targetPoint" />
          </mxGeometry>
        </mxCell>
        <mxCell id="ELEdCjapv1C9CMs8I46E-23" value="" style="endArrow=classic;html=1;rounded=0;exitX=0.5;exitY=0;exitDx=0;exitDy=0;entryX=0.5;entryY=1;entryDx=0;entryDy=0;" parent="ELEdCjapv1C9CMs8I46E-28" source="ELEdCjapv1C9CMs8I46E-7" target="ELEdCjapv1C9CMs8I46E-2" edge="1">
          <mxGeometry width="50" height="50" relative="1" as="geometry">
            <mxPoint x="350" y="517.0403225806451" as="sourcePoint" />
            <mxPoint x="350" y="495.6693548387097" as="targetPoint" />
          </mxGeometry>
        </mxCell>
        <mxCell id="ELEdCjapv1C9CMs8I46E-29" value="" style="group;fillColor=#ffff88;strokeColor=#36393d;" parent="1" vertex="1" connectable="0">
          <mxGeometry x="230" y="760" width="660" height="140" as="geometry" />
        </mxCell>
        <mxCell id="ELEdCjapv1C9CMs8I46E-10" value="数据链路层" style="rounded=0;whiteSpace=wrap;html=1;fillColor=#a20025;fontColor=#ffffff;strokeColor=#6F0000;" parent="ELEdCjapv1C9CMs8I46E-29" vertex="1">
          <mxGeometry width="220" height="60" as="geometry" />
        </mxCell>
        <mxCell id="ELEdCjapv1C9CMs8I46E-11" value="物理层" style="rounded=0;whiteSpace=wrap;html=1;fillColor=#a20025;fontColor=#ffffff;strokeColor=#6F0000;" parent="ELEdCjapv1C9CMs8I46E-29" vertex="1">
          <mxGeometry y="80" width="220" height="60" as="geometry" />
        </mxCell>
        <mxCell id="ELEdCjapv1C9CMs8I46E-14" value="主机到网络层" style="rounded=0;whiteSpace=wrap;html=1;fillColor=#a20025;fontColor=#ffffff;strokeColor=#6F0000;" parent="ELEdCjapv1C9CMs8I46E-29" vertex="1">
          <mxGeometry x="480" width="180" height="140" as="geometry" />
        </mxCell>
        <mxCell id="ELEdCjapv1C9CMs8I46E-19" value="" style="endArrow=classic;html=1;rounded=0;exitX=0.5;exitY=0;exitDx=0;exitDy=0;" parent="ELEdCjapv1C9CMs8I46E-29" source="ELEdCjapv1C9CMs8I46E-11" target="ELEdCjapv1C9CMs8I46E-10" edge="1">
          <mxGeometry width="50" height="50" relative="1" as="geometry">
            <mxPoint x="330" y="880" as="sourcePoint" />
            <mxPoint x="380" y="830" as="targetPoint" />
          </mxGeometry>
        </mxCell>
        <mxCell id="ELEdCjapv1C9CMs8I46E-30" value="&lt;h4&gt;IOS七层模型&lt;br&gt;理论&lt;/h4&gt;" style="text;html=1;align=center;verticalAlign=middle;resizable=0;points=[];autosize=1;strokeColor=none;fillColor=none;" parent="1" vertex="1">
          <mxGeometry x="290" y="305" width="90" height="70" as="geometry" />
        </mxCell>
        <mxCell id="ELEdCjapv1C9CMs8I46E-31" value="&lt;h4&gt;TCP/IP四层模型&lt;br&gt;实践&lt;/h4&gt;" style="text;html=1;align=center;verticalAlign=middle;resizable=0;points=[];autosize=1;strokeColor=none;fillColor=none;" parent="1" vertex="1">
          <mxGeometry x="740" y="305" width="110" height="70" as="geometry" />
        </mxCell>
      </root>
    </mxGraphModel>
  </diagram>
</mxfile>
